<svg width="1280" height="320" viewBox="0 0 1280 320" fill="none" xmlns="http://www.w3.org/2000/svg">
  <defs>
    <linearGradient id="bg" x1="40" y1="20" x2="1240" y2="300" gradientUnits="userSpaceOnUse">
      <stop stop-color="#08141f" />
      <stop offset="0.55" stop-color="#102437" />
      <stop offset="1" stop-color="#1a3f2f" />
    </linearGradient>
    <linearGradient id="chip" x1="0" y1="0" x2="220" y2="0" gradientUnits="userSpaceOnUse">
      <stop stop-color="#8dd6ff" />
      <stop offset="1" stop-color="#82ffb4" />
    </linearGradient>
    <filter id="shadow" x="-20" y="-20" width="1320" height="360" filterUnits="userSpaceOnUse" color-interpolation-filters="sRGB">
      <feDropShadow dx="0" dy="12" stdDeviation="20" flood-color="#02060c" flood-opacity="0.35" />
    </filter>
  </defs>
  <rect width="1280" height="320" rx="28" fill="url(#bg)" />
  <g opacity="0.14">
    <path d="M0 64H1280M0 128H1280M0 192H1280M0 256H1280" stroke="#D6ECFF" />
    <path d="M160 0V320M320 0V320M480 0V320M640 0V320M800 0V320M960 0V320M1120 0V320" stroke="#D6ECFF" />
  </g>
  <g filter="url(#shadow)">
    <rect x="52" y="44" width="260" height="34" rx="17" fill="#0f1d2b" />
    <rect x="54" y="46" width="256" height="30" rx="15" stroke="url(#chip)" stroke-opacity="0.5" />
    <text x="74" y="67" fill="#d9f7ff" font-family="Segoe UI, Arial, sans-serif" font-size="15" font-weight="700" letter-spacing="1.5">LLAMA.CPP / GGUF / RK3588</text>

    <text x="52" y="138" fill="#F7FBFF" font-family="Segoe UI, Arial, sans-serif" font-size="54" font-weight="800">llama-webui</text>
    <text x="52" y="176" fill="#B8CCE0" font-family="Segoe UI, Arial, sans-serif" font-size="24" font-weight="500">Remote llama.cpp workbench with direct runtime control,</text>
    <text x="52" y="208" fill="#B8CCE0" font-family="Segoe UI, Arial, sans-serif" font-size="24" font-weight="500">persistent chats, and RK3588-tuned local inference presets.</text>

    <rect x="52" y="238" width="180" height="34" rx="17" fill="#153247" />
    <text x="74" y="260" fill="#E8FFF2" font-family="Segoe UI, Arial, sans-serif" font-size="15" font-weight="700">NO OLLAMA LAYER</text>

    <rect x="246" y="238" width="186" height="34" rx="17" fill="#173828" />
    <text x="268" y="260" fill="#E8FFF2" font-family="Segoe UI, Arial, sans-serif" font-size="15" font-weight="700">RK3588 TESTED</text>

    <rect x="446" y="238" width="210" height="34" rx="17" fill="#2c1d41" />
    <text x="468" y="260" fill="#F7EBFF" font-family="Segoe UI, Arial, sans-serif" font-size="15" font-weight="700">DIRECT FLAG CONTROL</text>

    <g transform="translate(848 54)">
      <rect width="356" height="212" rx="22" fill="#0c1722" fill-opacity="0.88" stroke="#6FC7FF" stroke-opacity="0.26" />
      <text x="26" y="38" fill="#D2ECFF" font-family="Consolas, monospace" font-size="18" font-weight="700">rk3588 / fast tier</text>
      <text x="26" y="74" fill="#E8FFF2" font-family="Consolas, monospace" font-size="16">model: qwen3.5-2b-q4_k_m.gguf</text>
      <text x="26" y="102" fill="#E8FFF2" font-family="Consolas, monospace" font-size="16">threads: 6</text>
      <text x="26" y="130" fill="#E8FFF2" font-family="Consolas, monospace" font-size="16">ctx: 32768</text>
      <text x="26" y="158" fill="#E8FFF2" font-family="Consolas, monospace" font-size="16">flags: --reasoning off</text>
      <text x="26" y="186" fill="#8DD6FF" font-family="Consolas, monospace" font-size="16">kv: q8_0 / q4_0</text>
    </g>
  </g>
</svg>
